<svg id="Layer_12" data-name="Layer 12" xmlns="http://www.w3.org/2000/svg" width="29.442" height="26.487" viewBox="0 0 29.442 26.487">
  <defs>
    <style>
      .cls-1 {
        fill: #fcc63f;
      }

      .cls-2 {
        fill: #e4af2e;
      }

      .cls-3 {
        fill: #ffd956;
      }

      .cls-4 {
        fill: #ce9926;
      }

      .cls-5 {
        fill: #ffe89a;
      }
    </style>
  </defs>
  <ellipse id="Ellipse_9" data-name="Ellipse 9" class="cls-1" cx="13.203" cy="13.203" rx="13.203" ry="13.203" transform="translate(0 0)"/>
  <path id="Path_55182" data-name="Path 55182" class="cls-2" d="M33.471,5A13.367,13.367,0,0,0,32,5.083,13.243,13.243,0,0,1,32,31.4,13.243,13.243,0,1,0,33.471,5Z" transform="translate(-17.285 -5)"/>
  <circle id="Ellipse_10" data-name="Ellipse 10" class="cls-3" cx="10.132" cy="10.132" r="10.132" transform="translate(3.07 3.07)"/>
  <path id="Path_55183" data-name="Path 55183" class="cls-4" d="M47.98,13.433h2.943q-.34-.508-.725-.981H47.255Q47.64,12.926,47.98,13.433ZM52.007,15.4h-2.94c.143.32.271.648.389.981H52.4Q52.225,15.876,52.007,15.4Zm.919,2.943h-2.94c.06.323.107.65.143.981h2.943C53.037,18.988,52.987,18.662,52.926,18.338Zm.218,2.943H50.2q-.018.5-.073.981h2.943Q53.125,21.777,53.144,21.281Zm-.579,3.433H49.619q-.155.5-.343.981h2.943C52.343,25.374,52.462,25.048,52.565,24.715Zm-1.326,2.943H48.293q-.308.506-.658.981h2.943Q50.93,28.164,51.239,27.658ZM48.81,30.6H45.861a13.3,13.3,0,0,1-1.217.981h2.943A13.324,13.324,0,0,0,48.81,30.6Zm-2.948-19.62H48.81A13.324,13.324,0,0,0,47.586,10H44.643a13.3,13.3,0,0,1,1.218.981Z" transform="translate(-23.727 -7.548)"/>
  <path id="Path_55184" data-name="Path 55184" class="cls-2" d="M20.338,18.452A2.455,2.455,0,0,1,22.791,20.9a.49.49,0,1,0,.981,0,3.436,3.436,0,0,0-2.943-3.394V16.49a.49.49,0,0,0-.981,0v1.02A3.436,3.436,0,0,0,16.9,20.9v.49a2.691,2.691,0,0,0,1.66,2.49l3.169,1.32a1.713,1.713,0,0,1,1.057,1.585,2.452,2.452,0,1,1-4.9,0,.49.49,0,0,0-.981,0,3.436,3.436,0,0,0,2.943,3.394v1.02a.49.49,0,0,0,.981,0v-1.02a3.436,3.436,0,0,0,2.943-3.394,2.691,2.691,0,0,0-1.66-2.49l-3.169-1.32A1.713,1.713,0,0,1,17.886,21.4V20.9a2.455,2.455,0,0,1,2.452-2.452Zm-6.867,3.924H12.49a.49.49,0,1,0,0,.981h.981a.49.49,0,1,0,0-.981Zm0,1.962H12.49a.49.49,0,0,0,0,.981h.981a.49.49,0,1,0,0-.981Zm13.734-.981h.981a.49.49,0,1,0,0-.981h-.981a.49.49,0,1,0,0,.981Zm.981.981h-.981a.49.49,0,1,0,0,.981h.981a.49.49,0,1,0,0-.981Z" transform="translate(-7.095 -10.605)"/>
  <path id="Path_55185" data-name="Path 55185" class="cls-5" d="M17.8,31.581a10.791,10.791,0,1,1,3.378-21.042.491.491,0,1,1-.307.932,9.82,9.82,0,1,0,2.689,1.378.491.491,0,1,1,.577-.794A10.791,10.791,0,0,1,17.8,31.581Z" transform="translate(-4.556 -7.547)"/>
</svg>
